<svg xmlns="http://www.w3.org/2000/svg" viewBox="0 0 53.94 13.53"><defs><style>.cls-1{fill:#5500e8;stroke:#5500e8;stroke-miterlimit:10;stroke-width:2px;}</style></defs><title>Asset 2</title><g id="Layer_2" data-name="Layer 2"><g id="Foreground_Layer" data-name="Foreground Layer"><path class="cls-1" d="M49.89,5c-1.83,2.56-3.52,3.51-5.38,3.24C41,7.75,39,1.76,34.2,1.06c-2.69-.39-5.8,1-8.58,4.73-1.74,2.34-3.33,3.28-5.12,3C17,8.3,15,2.31,10.19,1.61,7.5,1.22,4.6,2.75,1.56,6.29c-1.71,2,.86,4.19,2.57,2.2C6.18,6.11,7.65,5,9.51,5.26c3.48.5,5.51,6.49,10.31,7.19,2.69.39,5.73-.6,8.5-4.35,1.82-2.56,3.34-3.66,5.2-3.39,3.48.51,5.51,6.5,10.31,7.2,2.69.39,5.86-.93,8.63-4.68A1.7,1.7,0,1,0,49.89,5Z"/></g></g></svg>