<svg xmlns="http://www.w3.org/2000/svg" viewBox="0 0 108 108"><defs><style>.cls-1{fill:none;}.cls-2{stroke:#000;stroke-miterlimit:10;}</style></defs><title>Asset 9</title><g id="Layer_2" data-name="Layer 2"><g id="Background_Layer" data-name="Background Layer"><rect id="Background_Colour" data-name="Background Colour" class="cls-1" width="108" height="108"/><path class="cls-2" d="M41,67.09a28.3,28.3,0,0,1,6,.43l0,0a3.68,3.68,0,0,1-.92-3.79,4.57,4.57,0,0,1,1-1.88,4.71,4.71,0,0,1,1.75-1.24.31.31,0,0,1,.23,0,20.6,20.6,0,0,0,2.26.87l2.41.78a23.18,23.18,0,0,1,4,1.61,6.47,6.47,0,0,1,2.28,1.82,2.53,2.53,0,0,1,.38,2.24l-.07.18c1.08,0,2.16,0,3.25.07l.53,0A6.23,6.23,0,0,0,65,64c-.1-1.26-1.21-2.54-3.61-4.16a25.8,25.8,0,0,0-6.17-2.65,41.08,41.08,0,0,1-4.75-1.82,2.46,2.46,0,0,1-1.37-1.78c0-1.59,1.88-1.66,5.4-1.14a12,12,0,0,0,5.44-1,10.63,10.63,0,0,0,4.25-3.22A8.45,8.45,0,0,0,66,43.34a8.17,8.17,0,0,0-.55-3.48,8.44,8.44,0,0,0-1.81-2.79.3.3,0,0,1-.08-.28A5.3,5.3,0,0,1,64.47,35,2.56,2.56,0,0,1,66,33.86a2.27,2.27,0,0,0,.75,1.38,2.2,2.2,0,0,0,1.43.62,2.7,2.7,0,0,0,1.66-.35,2.46,2.46,0,0,0,.9-1,3.24,3.24,0,0,0,.31-1.17,2.86,2.86,0,0,0-.67-2.17,3.13,3.13,0,0,0-2.29-.92,4.82,4.82,0,0,0-2.74.64,7.69,7.69,0,0,0-2.22,1.94,10.51,10.51,0,0,0-1.4,2.35.28.28,0,0,1-.42.12,9.41,9.41,0,0,0-2.62-1.2,13.76,13.76,0,0,0-3-.56,11.58,11.58,0,0,0-5.31,1,10.57,10.57,0,0,0-4.28,3.32A8.72,8.72,0,0,0,44.29,43a7.36,7.36,0,0,0,1.17,4.43,8.58,8.58,0,0,0,2.41,2.43.28.28,0,0,1-.08.51,5.7,5.7,0,0,0-1.65,1A5.2,5.2,0,0,0,44.22,54a4.13,4.13,0,0,0,.15,2.69,4.5,4.5,0,0,0,1.57,1.89.29.29,0,0,1-.14.52,7.13,7.13,0,0,0-2.06.68,7,7,0,0,0-2.06,1.52,5,5,0,0,0-1.13,2.09,5.23,5.23,0,0,0,.26,3.33A2.22,2.22,0,0,0,41,67.09Zm9.48-24.85A7.71,7.71,0,0,1,52,37.92a4,4,0,0,1,3.12-1.67,3.65,3.65,0,0,1,3,1.22,6.5,6.5,0,0,1,1.38,2.85,12.76,12.76,0,0,1,.3,3.62,8.05,8.05,0,0,1-.68,2.87A5.51,5.51,0,0,1,57.39,49a4,4,0,0,1-5-.38,6.11,6.11,0,0,1-1.49-2.72A10.7,10.7,0,0,1,50.49,42.24Z"/></g></g></svg>