<svg xmlns="http://www.w3.org/2000/svg" viewBox="0 0 108 108"><defs><style>.cls-1{fill:none;}.cls-2{fill:#5500e8;stroke:#5500e8;stroke-miterlimit:10;stroke-width:1.75px;}</style></defs><title>Asset 12</title><g id="Layer_2" data-name="Layer 2"><g id="Foreground_Layer" data-name="Foreground Layer"><rect id="Background_Colour" data-name="Background Colour" class="cls-1" width="108" height="108"/><path class="cls-2" d="M71.23,68.35c-2.82-3.1-5.52-4.45-8-4.1-4.45.61-6.32,6.31-9.22,6.31s-4.77-5.7-9.22-6.31c-2.49-.35-5.19,1-8,4.1-1.58,1.74.8,3.68,2.39,1.93,1.9-2.09,3.26-3.07,5-2.84,3.2.44,4.4,6.24,9.85,6.25s6.65-5.81,9.85-6.25c1.73-.23,3.09.75,5,2.84C70.43,72,72.81,70.09,71.23,68.35Z"/></g></g></svg>