<svg xmlns="http://www.w3.org/2000/svg" viewBox="0 0 108 108"><defs><style>.cls-1{fill:none;}.cls-2{fill:#5500e8;stroke:#5500e8;stroke-miterlimit:10;stroke-width:2px;}</style></defs><title>Asset 10</title><g id="Layer_2" data-name="Layer 2"><g id="Foreground_Layer" data-name="Foreground Layer"><rect id="Background_Colour" data-name="Background Colour" class="cls-1" width="108" height="108"/><path class="cls-2" d="M73.4,69.39c-3.21-3.54-6.29-5.07-9.13-4.68-5.08.7-7.21,7.2-10.52,7.2s-5.44-6.5-10.52-7.2c-2.84-.39-5.92,1.14-9.13,4.68-1.81,2,.91,4.2,2.72,2.21,2.16-2.39,3.72-3.51,5.69-3.24,3.65.5,5,7.11,11.24,7.13S61.34,68.86,65,68.36c2-.27,3.53.85,5.69,3.24C72.49,73.59,75.21,71.38,73.4,69.39Z"/></g></g></svg>