<svg xmlns="http://www.w3.org/2000/svg" viewBox="0 0 108 108"><defs><style>.cls-1{fill:none;}.cls-2{font-size:66px;font-family:Lora-SemiBold, Lora;font-weight:600;}.cls-3{fill:#5500e8;stroke:#5500e8;stroke-miterlimit:10;stroke-width:2px;}</style></defs><title>Asset 8</title><g id="Layer_2" data-name="Layer 2"><g id="Background_Layer" data-name="Background Layer"><rect id="Background_Colour" data-name="Background Colour" class="cls-1" width="108" height="108"/><text class="cls-2" transform="translate(34.17 64.5)">g</text></g><g id="Foreground_Layer" data-name="Foreground Layer"><rect id="Background_Colour-2" data-name="Background Colour" class="cls-1" width="108" height="108"/><path class="cls-3" d="M76.39,62.13c-1.83,2.55-3.52,3.51-5.38,3.24-3.48-.51-5.51-6.5-10.31-7.2-2.69-.39-5.8,1-8.57,4.72-1.75,2.35-3.33,3.28-5.13,3-3.48-.51-5.51-6.5-10.31-7.2-2.69-.39-5.59,1.14-8.63,4.68-1.7,2,.86,4.2,2.57,2.21,2.05-2.39,3.52-3.51,5.38-3.24,3.48.51,5.52,6.5,10.31,7.2C49,70,52.05,69,54.82,65.2c1.83-2.55,3.34-3.66,5.2-3.38,3.48.5,5.51,6.49,10.31,7.19,2.69.39,5.86-.93,8.63-4.68A1.69,1.69,0,1,0,76.39,62.13Z"/></g></g></svg>