<svg xmlns="http://www.w3.org/2000/svg" viewBox="0 0 108 108"><defs><style>.cls-1{fill:#fff;}.cls-2{stroke:#000;stroke-miterlimit:10;stroke-width:0.88px;}</style></defs><title>Asset 11</title><g id="Layer_2" data-name="Layer 2"><g id="Background_Layer" data-name="Background Layer"><rect id="Background_Colour" data-name="Background Colour" class="cls-1" width="108" height="108"/><path class="cls-2" d="M42.08,66.33a25.19,25.19,0,0,1,5.25.38v0a3.22,3.22,0,0,1-.81-3.32,4,4,0,0,1,.92-1.65A4.13,4.13,0,0,1,49,60.63a.26.26,0,0,1,.21,0,19.1,19.1,0,0,0,2,.77l2.11.68a21,21,0,0,1,3.54,1.41,5.73,5.73,0,0,1,2,1.6,2.22,2.22,0,0,1,.32,2,1.42,1.42,0,0,1,0,.16c.94,0,1.89,0,2.85.06l.46,0a5.45,5.45,0,0,0,.74-3.61C63,62.52,62.06,61.4,60,60a22.43,22.43,0,0,0-5.41-2.31,37,37,0,0,1-4.16-1.6,2.17,2.17,0,0,1-1.2-1.57c0-1.39,1.65-1.45,4.73-1a10.61,10.61,0,0,0,4.77-.83,9.5,9.5,0,0,0,3.72-2.82A7.49,7.49,0,0,0,64,45.51a7,7,0,0,0-.49-3A7.32,7.32,0,0,0,61.94,40a.26.26,0,0,1-.07-.24,4.74,4.74,0,0,1,.78-1.56,2.23,2.23,0,0,1,1.38-1,1.94,1.94,0,0,0,.65,1.21,2,2,0,0,0,1.26.55,2.36,2.36,0,0,0,1.45-.31,2.17,2.17,0,0,0,.79-.92,2.9,2.9,0,0,0,.28-1,2.52,2.52,0,0,0-.6-1.9,2.74,2.74,0,0,0-2-.81,4.23,4.23,0,0,0-2.4.56,7.13,7.13,0,0,0-2,1.7,9.36,9.36,0,0,0-1.23,2.06.24.24,0,0,1-.36.11,8.21,8.21,0,0,0-2.3-1.05,11.92,11.92,0,0,0-2.67-.5,10.22,10.22,0,0,0-4.66.86,9.4,9.4,0,0,0-3.76,2.91A7.7,7.7,0,0,0,45,45.17a6.43,6.43,0,0,0,1,3.88,7.42,7.42,0,0,0,2.12,2.13.25.25,0,0,1-.07.45,4.87,4.87,0,0,0-1.45.9,4.55,4.55,0,0,0-1.68,2.29A3.6,3.6,0,0,0,45,57.18a3.92,3.92,0,0,0,1.38,1.66.25.25,0,0,1-.12.45,6.42,6.42,0,0,0-1.81.6,6.21,6.21,0,0,0-1.81,1.33,4.41,4.41,0,0,0-1,1.83A4.58,4.58,0,0,0,41.91,66,2,2,0,0,0,42.08,66.33Zm8.31-21.78a6.88,6.88,0,0,1,1.28-3.79,3.57,3.57,0,0,1,2.74-1.46A3.19,3.19,0,0,1,57,40.36a5.67,5.67,0,0,1,1.21,2.51A11.06,11.06,0,0,1,58.49,46a6.79,6.79,0,0,1-.59,2.51,4.73,4.73,0,0,1-1.45,1.88,3.23,3.23,0,0,1-2.24.64,3.17,3.17,0,0,1-2.19-1,5.36,5.36,0,0,1-1.3-2.38A9.63,9.63,0,0,1,50.39,44.55Z"/></g></g></svg>